<svg xmlns="http://www.w3.org/2000/svg" viewBox="0 0 640 1190" width="640" height="1190">
  <rect width="640" height="1190" fill="#141414"/>
  <text x="320" y="30" text-anchor="middle" fill="#E4E4E4" font-family="system-ui,sans-serif" font-size="17" font-weight="700">GRCentral - Application Flow</text>
  <text x="320" y="50" text-anchor="middle" fill="#555555" font-family="system-ui,sans-serif" font-size="10">Regulatory ingestion - Compliance analysis - Risk scoring - Executive dashboard</text>
  <rect x="30"  y="66" width="10" height="10" rx="2" fill="#222222" stroke="#555555" stroke-width="1.5"/>
  <text x="44"  y="75" fill="#666666" font-family="system-ui,sans-serif" font-size="9">External Input</text>
  <rect x="136" y="66" width="10" height="10" rx="2" fill="#1C3D6A" stroke="#599CE7" stroke-width="1.5"/>
  <text x="150" y="75" fill="#666666" font-family="system-ui,sans-serif" font-size="9">Processing Engine</text>
  <rect x="268" y="66" width="10" height="10" rx="2" fill="#1A1A1A" stroke="#383838" stroke-width="1.5"/>
  <text x="282" y="75" fill="#666666" font-family="system-ui,sans-serif" font-size="9">Data Model</text>
  <rect x="348" y="66" width="10" height="10" rx="2" fill="#2A1010" stroke="#884444" stroke-width="1.5"/>
  <text x="362" y="75" fill="#666666" font-family="system-ui,sans-serif" font-size="9">Risk Surface</text>
  <rect x="436" y="66" width="10" height="10" rx="2" fill="#1E1C0E" stroke="#666633" stroke-width="1.5"/>
  <text x="450" y="75" fill="#666666" font-family="system-ui,sans-serif" font-size="9">Workflow</text>
  <rect x="508" y="66" width="10" height="10" rx="2" fill="#0D2214" stroke="#336644" stroke-width="1.5"/>
  <text x="522" y="75" fill="#666666" font-family="system-ui,sans-serif" font-size="9">UI View</text>
  <line x1="30" y1="88" x2="610" y2="88" stroke="#242424" stroke-width="1"/>
  <defs>
    <marker id="arr" markerWidth="8" markerHeight="7" refX="7" refY="3.5" orient="auto"><path d="M0,0.5 L0,6.5 L7,3.5 Z" fill="#4A4A4A"/></marker>
    <marker id="arrd" markerWidth="8" markerHeight="7" refX="7" refY="3.5" orient="auto"><path d="M0,0.5 L0,6.5 L7,3.5 Z" fill="#383838"/></marker>
  </defs>
  <line x1="180" y1="166" x2="180" y2="228" stroke="#444444" stroke-width="1.5" marker-end="url(#arr)"/>
  <path d="M 180,284 C 180,315 320,315 320,346" fill="none" stroke="#444444" stroke-width="1.5" marker-end="url(#arr)"/>
  <path d="M 320,402 C 320,433 180,433 180,464" fill="none" stroke="#444444" stroke-width="1.5" marker-end="url(#arr)"/>
  <path d="M 320,402 C 320,433 460,433 460,464" fill="none" stroke="#444444" stroke-width="1.5" marker-end="url(#arr)"/>
  <path d="M 180,520 C 180,551 320,551 320,582" fill="none" stroke="#444444" stroke-width="1.5" marker-end="url(#arr)"/>
  <line x1="460" y1="166" x2="460" y2="228" stroke="#444444" stroke-width="1.5" marker-end="url(#arr)"/>
  <path d="M 460,284 C 578,284 578,582 320,582" fill="none" stroke="#383838" stroke-width="1" stroke-dasharray="5,3" marker-end="url(#arrd)"/>
  <path d="M 460,284 C 592,284 592,700 320,700" fill="none" stroke="#383838" stroke-width="1" stroke-dasharray="5,3" marker-end="url(#arrd)"/>
  <line x1="320" y1="638" x2="320" y2="700" stroke="#444444" stroke-width="1.5" marker-end="url(#arr)"/>
  <path d="M 320,756 C 320,787 180,787 180,818" fill="none" stroke="#444444" stroke-width="1.5" marker-end="url(#arr)"/>
  <path d="M 320,756 C 320,787 460,787 460,818" fill="none" stroke="#444444" stroke-width="1.5" marker-end="url(#arr)"/>
  <path d="M 180,874 C 180,964 320,964 320,1054" fill="none" stroke="#444444" stroke-width="1.5" marker-end="url(#arr)"/>
  <line x1="460" y1="874" x2="460" y2="936" stroke="#444444" stroke-width="1.5" marker-end="url(#arr)"/>
  <path d="M 460,992 C 460,1023 320,1023 320,1054" fill="none" stroke="#444444" stroke-width="1.5" marker-end="url(#arr)"/>
  <path d="M 460,520 C 606,520 606,1054 320,1054" fill="none" stroke="#383838" stroke-width="1" stroke-dasharray="5,3" marker-end="url(#arrd)"/>
  <rect x="70" y="110" width="220" height="56" rx="8" fill="#222222" stroke="#555555" stroke-width="1"/>
  <text x="180" y="131" text-anchor="middle" dominant-baseline="middle" fill="#DCDCDC" font-family="system-ui,sans-serif" font-size="12" font-weight="600">Regulatory Sources</text>
  <text x="180" y="149" text-anchor="middle" dominant-baseline="middle" fill="#606060" font-family="system-ui,sans-serif" font-size="9">11 feeds - EUR-Lex EDPB NIST CISA OWASP</text>
  <rect x="350" y="110" width="220" height="56" rx="8" fill="#222222" stroke="#555555" stroke-width="1"/>
  <text x="460" y="131" text-anchor="middle" dominant-baseline="middle" fill="#DCDCDC" font-family="system-ui,sans-serif" font-size="12" font-weight="600">Internal Policies</text>
  <text x="460" y="149" text-anchor="middle" dominant-baseline="middle" fill="#606060" font-family="system-ui,sans-serif" font-size="9">6 seeded + uploads - PDF MD HTML TXT</text>
  <rect x="70" y="228" width="220" height="56" rx="8" fill="#1C3D6A" stroke="#4A85CC" stroke-width="1"/>
  <text x="180" y="249" text-anchor="middle" dominant-baseline="middle" fill="#C0D8F4" font-family="system-ui,sans-serif" font-size="12" font-weight="600">Live Polling Engine</text>
  <text x="180" y="267" text-anchor="middle" dominant-baseline="middle" fill="#6090BE" font-family="system-ui,sans-serif" font-size="9">Ticks 6-12 s - hot events inject changes</text>
  <rect x="350" y="228" width="220" height="56" rx="8" fill="#1C3D6A" stroke="#4A85CC" stroke-width="1"/>
  <text x="460" y="249" text-anchor="middle" dominant-baseline="middle" fill="#C0D8F4" font-family="system-ui,sans-serif" font-size="12" font-weight="600">Policy Analyzer</text>
  <text x="460" y="267" text-anchor="middle" dominant-baseline="middle" fill="#6090BE" font-family="system-ui,sans-serif" font-size="9">Metadata - coverage - content heuristics</text>
  <rect x="210" y="346" width="220" height="56" rx="8" fill="#1C3D6A" stroke="#4A85CC" stroke-width="1"/>
  <text x="320" y="367" text-anchor="middle" dominant-baseline="middle" fill="#C0D8F4" font-family="system-ui,sans-serif" font-size="12" font-weight="600">Change Detection</text>
  <text x="320" y="385" text-anchor="middle" dominant-baseline="middle" fill="#6090BE" font-family="system-ui,sans-serif" font-size="9">Article hash diff - ELI versioning</text>
  <rect x="70" y="464" width="220" height="56" rx="8" fill="#1A1A1A" stroke="#383838" stroke-width="1"/>
  <text x="180" y="485" text-anchor="middle" dominant-baseline="middle" fill="#DCDCDC" font-family="system-ui,sans-serif" font-size="12" font-weight="600">Framework Controls</text>
  <text x="180" y="503" text-anchor="middle" dominant-baseline="middle" fill="#505050" font-family="system-ui,sans-serif" font-size="9">Clauses: GDPR Art.32, AI Act Annex III</text>
  <rect x="350" y="464" width="220" height="56" rx="8" fill="#0D2214" stroke="#2E6040" stroke-width="1"/>
  <text x="460" y="485" text-anchor="middle" dominant-baseline="middle" fill="#DCDCDC" font-family="system-ui,sans-serif" font-size="12" font-weight="600">Regulatory Radar</text>
  <text x="460" y="503" text-anchor="middle" dominant-baseline="middle" fill="#447755" font-family="system-ui,sans-serif" font-size="9">Live timeline - source health - article diff</text>
  <rect x="210" y="582" width="220" height="56" rx="8" fill="#1C3D6A" stroke="#4A85CC" stroke-width="1"/>
  <text x="320" y="603" text-anchor="middle" dominant-baseline="middle" fill="#C0D8F4" font-family="system-ui,sans-serif" font-size="12" font-weight="600">Compliance Scanner</text>
  <text x="320" y="621" text-anchor="middle" dominant-baseline="middle" fill="#6090BE" font-family="system-ui,sans-serif" font-size="9">compliant / partial / missing per clause</text>
  <rect x="210" y="700" width="220" height="56" rx="8" fill="#2A1010" stroke="#7A3636" stroke-width="1"/>
  <text x="320" y="721" text-anchor="middle" dominant-baseline="middle" fill="#DCDCDC" font-family="system-ui,sans-serif" font-size="12" font-weight="600">Compliance Gaps and Risks</text>
  <text x="320" y="739" text-anchor="middle" dominant-baseline="middle" fill="#7A5555" font-family="system-ui,sans-serif" font-size="9">by policy - framework - clause - severity</text>
  <rect x="70" y="818" width="220" height="56" rx="8" fill="#1C3D6A" stroke="#4A85CC" stroke-width="1"/>
  <text x="180" y="839" text-anchor="middle" dominant-baseline="middle" fill="#C0D8F4" font-family="system-ui,sans-serif" font-size="12" font-weight="600">Risk Drift Engine</text>
  <text x="180" y="857" text-anchor="middle" dominant-baseline="middle" fill="#6090BE" font-family="system-ui,sans-serif" font-size="9">6-factor formula x TrendMultiplier (0-100)</text>
  <rect x="350" y="818" width="220" height="56" rx="8" fill="#1E1C0E" stroke="#5C5A22" stroke-width="1"/>
  <text x="460" y="839" text-anchor="middle" dominant-baseline="middle" fill="#DCDCDC" font-family="system-ui,sans-serif" font-size="12" font-weight="600">Preventive Actions</text>
  <text x="460" y="857" text-anchor="middle" dominant-baseline="middle" fill="#787840" font-family="system-ui,sans-serif" font-size="9">planned to in-progress to review to done</text>
  <rect x="350" y="936" width="220" height="56" rx="8" fill="#1A1A1A" stroke="#383838" stroke-width="1"/>
  <text x="460" y="957" text-anchor="middle" dominant-baseline="middle" fill="#DCDCDC" font-family="system-ui,sans-serif" font-size="12" font-weight="600">Evidence Vault</text>
  <text x="460" y="975" text-anchor="middle" dominant-baseline="middle" fill="#505050" font-family="system-ui,sans-serif" font-size="9">Auto-derived + approved - aging factor</text>
  <rect x="210" y="1054" width="220" height="56" rx="8" fill="#0D2214" stroke="#2E6040" stroke-width="1"/>
  <text x="320" y="1075" text-anchor="middle" dominant-baseline="middle" fill="#DCDCDC" font-family="system-ui,sans-serif" font-size="12" font-weight="600">Executive Dashboard</text>
  <text x="320" y="1093" text-anchor="middle" dominant-baseline="middle" fill="#447755" font-family="system-ui,sans-serif" font-size="9">Drift gauge - KPIs - heatmap - next action</text>
  <line x1="30" y1="1130" x2="610" y2="1130" stroke="#242424" stroke-width="1"/>
  <text x="320" y="1148" text-anchor="middle" fill="#3A3A3A" font-family="system-ui,sans-serif" font-size="8.5">DriftScore = (0.30*RegImpact + 0.25*CoverageGap + 0.20*CtrlDrift + 0.10*EvidenceAging + 0.10*RemDelay + 0.05*BizCrit) x TrendMultiplier</text>
  <text x="320" y="1165" text-anchor="middle" fill="#2E2E2E" font-family="system-ui,sans-serif" font-size="8.5">Bands: 0-25 Stable - 26-50 Elevated - 51-75 High - 76-100 Critical</text>
  <text x="320" y="1180" text-anchor="middle" fill="#2A2A2A" font-family="system-ui,sans-serif" font-size="8">Dashed edges = multi-rank connections routed to the right</text>
</svg>
